<?xml version="1.0" encoding="utf-8"?>
<!-- Generator: Adobe Illustrator 19.0.0, SVG Export Plug-In . SVG Version: 6.00 Build 0)  -->
<svg version="1.1" id="Layer_1" xmlns="http://www.w3.org/2000/svg" xmlns:xlink="http://www.w3.org/1999/xlink" x="0px" y="0px"
	 viewBox="-225 318 160 158" style="enable-background:new -225 318 160 158;" xml:space="preserve">
<style type="text/css">
	.st0{fill:#2F4C67;}
</style>
<g>
	<path class="st0" d="M-72.3,428.4v11.9c0,2.4-1,4.6-2.5,6.2c-1.5,1.5-3.7,2.5-6.1,2.5c2.4,0,4.6,1,6.1,2.5s2.5,3.7,2.5,6.1v14.5
		H-81V461c0-4.8-3.9-8.7-8.7-8.7v19.8h-8.7v-43.7h8.7v17.2c4.7,0,8.6-3.8,8.7-8.6l0,0v-8.7h8.7V428.4z"/>
	<path class="st0" d="M-133.6,347.3v-4.7v-1.9h-13.2v6.6h4.4v12h-8.8v-30.9h8.8v4.4h8.8v-4.4c0-3.6-2.9-6.6-6.6-6.6h-13.2
		c-3.6,0-6.6,2.9-6.6,6.6v30.8l0,0c0,3.6,2.9,6.6,6.6,6.6l0,0h13.2c3.6,0,6.6-2.9,6.6-6.6L-133.6,347.3L-133.6,347.3z"/>
	<polygon class="st0" points="-195.8,359.3 -209,359.3 -209,321.9 -217.8,321.9 -217.8,359.3 -217.8,365.4 -217.8,365.9 
		-195.8,365.9 	"/>
	<polygon class="st0" points="-80.2,359.3 -80.2,321.9 -89,321.9 -89,359.3 -89,365.9 -80.2,365.9 -66.9,365.9 -66.9,359.3 	"/>
	<polygon class="st0" points="-166.9,359.3 -180.1,359.3 -180.1,347.3 -169.1,347.3 -169.1,340.7 -180.1,340.7 -180.1,328.4 
		-166.9,328.4 -166.9,321.9 -180.1,321.9 -188.9,321.9 -188.9,328.4 -188.9,340.7 -188.9,347.3 -188.9,359.3 -188.9,365.4 
		-188.9,365.9 -166.9,365.9 	"/>
	<path class="st0" d="M-115.7,347.3h8.8v18.6h8.8v-37.5c0-3.6-2.9-6.6-6.6-6.6h-13.2c-3.6,0-6.6,2.9-6.6,6.6v37.5h8.9L-115.7,347.3
		L-115.7,347.3z M-106.9,328.4v12.2h-8.8v-12.2H-106.9z"/>
	<rect x="-182.3" y="374.9" class="st0" width="8.8" height="44"/>
	<path class="st0" d="M-185.5,465.5h-7.3v6.6h9.6l0,0l0,0l0,0l0,0c3.6,0,6.6-2.9,6.6-6.6v-37.4h-8.8L-185.5,465.5L-185.5,465.5z"/>
	<path class="st0" d="M-201.6,428.1v37.5h-9.6l0,0h2.2v-37.5h-8.8v37.5c0,3.6,2.9,6.6,6.6,6.6h9.6v-6.6v6.6c1.7,0,3.2-0.6,4.4-1.7
		c1.2,1.1,2.7,1.7,4.4,1.7v-6.6v-37.5H-201.6z"/>
	<polygon class="st0" points="-82.4,374.9 -89,374.9 -89,381.6 -82.4,381.6 -82.4,419 -73.6,419 -73.6,381.6 -66.9,381.6 
		-66.9,374.9 -73.6,374.9 	"/>
	<path class="st0" d="M-148.5,428.1h-13.7c-3.6,0-6.6,2.9-6.6,6.6v30.8l0,0c0,3.6,2.9,6.6,6.6,6.6h13.7c3.6,0,6.6-2.9,6.6-6.6v-30.8
		C-141.9,431-144.8,428.1-148.5,428.1z M-150.7,434.7v30.8h-9.3v-30.8H-150.7z"/>
	<path class="st0" d="M-144.6,374.9h-11.1h-2.2h-6.5v44h6.6h2.2h11c3.6,0,6.6-2.9,6.6-6.6v-30.8C-138,378-141,374.9-144.6,374.9z
		 M-155.6,412.4v-30.8h8.8v30.8H-155.6z"/>
	<path class="st0" d="M-114,428.1h-11l0,0h-8.8v44h8.8v-19.9h8.8v2.2V472h8.8v-17.6c0-2.3-1.2-4.3-2.9-5.5c1.8-1.2,2.9-3.2,2.9-5.5
		v-8.8C-107.4,431-110.3,428.1-114,428.1z M-125,445.7v-11.1h8.8v8.8v2.2h-8.8V445.7z"/>
	<path class="st0" d="M-209,400.4h8.8V419h8.8v-37.5c0-3.6-2.9-6.6-6.6-6.6h-13.2c-3.6,0-6.6,2.9-6.6,6.6V419h8.8V400.4L-209,400.4z
		 M-200.2,381.6v12.2h-8.8v-12.2H-200.2z"/>
	<path class="st0" d="M-93.7,419v-37.5c0-3.6-2.9-6.6-6.6-6.6h-13.2c-3.6,0-6.6,2.9-6.6,6.6V419h8.8v-18.6h8.8V419H-93.7z
		 M-111.3,393.8v-12.2h8.8v12.2H-111.3z"/>
</g>
</svg>
